<svg xmlns="http://www.w3.org/2000/svg" width="32" height="32" viewBox="0 0 32 32">
  <rect width="32" height="32" rx="6" fill="#E6007A"/>
  <g transform="translate(4, 7)" fill="white">
    <path fill-rule="nonzero" d="M18.65 11.595L14.77 9l-3.882 2.596L7.006 9 0 13.685 2.887 18l4.12-2.755 3.881 2.596 3.882-2.596 3.88 2.596 3.882-2.596L26.652 18l2.886-4.315L22.532 9zM7.006 6.245l3.882 2.596 3.882-2.596 3.88 2.596 3.882-2.596L26.652 9l2.886-4.315L22.532 0l-3.881 2.595L14.77 0l-3.882 2.596L7.006 0 0 4.685 2.887 9z"/>
  </g>
</svg>
